<svg width="25" height="27" viewBox="0 0 25 27" fill="none" xmlns="http://www.w3.org/2000/svg">
<path d="M3.125 27C2.26562 27 1.53021 26.6981 0.91875 26.0943C0.30625 25.4895 0 24.7629 0 23.9143V10.0286C0 9.54 0.110937 9.07714 0.332812 8.64C0.553646 8.20286 0.859375 7.84286 1.25 7.56L10.625 0.617143C10.9115 0.411429 11.2109 0.257143 11.5234 0.154286C11.8359 0.0514284 12.1615 0 12.5 0C12.8385 0 13.1641 0.0514284 13.4766 0.154286C13.7891 0.257143 14.0885 0.411429 14.375 0.617143L23.75 7.56C24.1406 7.84286 24.4469 8.20286 24.6688 8.64C24.8896 9.07714 25 9.54 25 10.0286V23.9143C25 24.7629 24.6943 25.4895 24.0828 26.0943C23.4703 26.6981 22.7344 27 21.875 27H15.625V16.2H9.375V27H3.125Z" fill="black"/>
</svg>
