<svg width="22" height="27" viewBox="0 0 22 27" fill="none" xmlns="http://www.w3.org/2000/svg">
<path d="M11 13.5C11.7563 13.5 12.4039 13.2354 12.9429 12.7062C13.481 12.1779 13.75 11.5425 13.75 10.8C13.75 10.0575 13.481 9.42165 12.9429 8.89245C12.4039 8.36415 11.7563 8.1 11 8.1C10.2437 8.1 9.59658 8.36415 9.0585 8.89245C8.5195 9.42165 8.25 10.0575 8.25 10.8C8.25 11.5425 8.5195 12.1779 9.0585 12.7062C9.59658 13.2354 10.2437 13.5 11 13.5ZM11 23.4225C13.7958 20.9025 15.8698 18.6129 17.2219 16.5537C18.574 14.4954 19.25 12.6675 19.25 11.07C19.25 8.6175 18.4534 6.60915 16.8602 5.04495C15.268 3.48165 13.3146 2.7 11 2.7C8.68542 2.7 6.73154 3.48165 5.13837 5.04495C3.54612 6.60915 2.75 8.6175 2.75 11.07C2.75 12.6675 3.42604 14.4954 4.77812 16.5537C6.13021 18.6129 8.20417 20.9025 11 23.4225ZM11 27C7.31042 23.9175 4.55492 21.0541 2.7335 18.41C0.911167 15.7667 0 13.32 0 11.07C0 7.695 1.10596 5.00625 3.31788 3.00375C5.52888 1.00125 8.08958 0 11 0C13.9104 0 16.4711 1.00125 18.6821 3.00375C20.894 5.00625 22 7.695 22 11.07C22 13.32 21.0893 15.7667 19.2679 18.41C17.4455 21.0541 14.6896 23.9175 11 27Z" fill="black"/>
</svg>
