<svg width="66" height="12" viewBox="0 0 66 12" fill="none" xmlns="http://www.w3.org/2000/svg">
<path d="M0.084 0.588H7.296V2.4H4.776V9H2.58V2.4H0.084V0.588ZM10.1356 3.588C10.3596 3.212 10.6476 2.924 10.9996 2.724C11.3596 2.524 11.7676 2.424 12.2236 2.424V4.38C12.1516 4.372 12.0436 4.368 11.8996 4.368C11.3956 4.368 10.9876 4.488 10.6756 4.728C10.3636 4.96 10.1836 5.28 10.1356 5.688V9H7.99959V2.508H10.1356V3.588ZM15.9081 2.424C16.8041 2.424 17.5001 2.632 17.9961 3.048C18.4921 3.456 18.7441 4.032 18.7521 4.776V9H16.6521V8.268C16.2201 8.82 15.5681 9.096 14.6961 9.096C14.0081 9.096 13.4641 8.912 13.0641 8.544C12.6721 8.168 12.4761 7.676 12.4761 7.068C12.4761 6.452 12.6881 5.972 13.1121 5.628C13.5441 5.284 14.1601 5.108 14.9601 5.1H16.6521V5.028C16.6521 4.716 16.5441 4.476 16.3281 4.308C16.1201 4.14 15.8161 4.056 15.4161 4.056C15.1441 4.056 14.8361 4.1 14.4921 4.188C14.1561 4.276 13.8161 4.404 13.4721 4.572L12.8841 3.132C13.4121 2.892 13.9161 2.716 14.3961 2.604C14.8841 2.484 15.3881 2.424 15.9081 2.424ZM15.3561 7.644C15.6761 7.644 15.9561 7.568 16.1961 7.416C16.4361 7.256 16.5881 7.052 16.6521 6.804V6.24H15.3801C14.7801 6.24 14.4801 6.464 14.4801 6.912C14.4801 7.136 14.5561 7.316 14.7081 7.452C14.8681 7.58 15.0841 7.644 15.3561 7.644ZM24.5191 4.56C23.6791 4.12 22.9911 3.9 22.4551 3.9C22.2711 3.9 22.1231 3.936 22.0111 4.008C21.8991 4.072 21.8431 4.172 21.8431 4.308C21.8431 4.452 21.9311 4.568 22.1071 4.656C22.2831 4.744 22.5631 4.84 22.9471 4.944C23.4111 5.08 23.7951 5.216 24.0991 5.352C24.4111 5.48 24.6791 5.68 24.9031 5.952C25.1271 6.216 25.2391 6.564 25.2391 6.996C25.2391 7.652 24.9831 8.168 24.4711 8.544C23.9671 8.912 23.3071 9.096 22.4911 9.096C21.9391 9.096 21.4111 9.02 20.9071 8.868C20.4031 8.708 19.9551 8.476 19.5631 8.172L20.2351 6.792C20.6031 7.048 20.9871 7.248 21.3871 7.392C21.7951 7.528 22.1791 7.596 22.5391 7.596C22.7471 7.596 22.9111 7.564 23.0311 7.5C23.1591 7.428 23.2231 7.328 23.2231 7.2C23.2231 7.04 23.1311 6.916 22.9471 6.828C22.7711 6.74 22.4911 6.644 22.1071 6.54C21.6511 6.404 21.2751 6.272 20.9791 6.144C20.6831 6.008 20.4231 5.808 20.1991 5.544C19.9831 5.28 19.8751 4.936 19.8751 4.512C19.8751 3.856 20.1231 3.344 20.6191 2.976C21.1151 2.6 21.7551 2.412 22.5391 2.412C23.0111 2.412 23.4751 2.476 23.9311 2.604C24.3951 2.732 24.8311 2.92 25.2391 3.168L24.5191 4.56ZM30.7303 2.424C31.4503 2.424 32.0223 2.648 32.4463 3.096C32.8783 3.544 33.0943 4.148 33.0943 4.908V9H30.9583V5.52C30.9583 5.152 30.8583 4.864 30.6583 4.656C30.4663 4.44 30.1983 4.332 29.8543 4.332C29.4623 4.34 29.1503 4.48 28.9183 4.752C28.6943 5.016 28.5823 5.364 28.5823 5.796V9H26.4463V0.0959995H28.5823V3.564C28.8143 3.188 29.1103 2.904 29.4703 2.712C29.8383 2.52 30.2583 2.424 30.7303 2.424Z" fill="white"/>
<path d="M38.1548 0.588C39.0348 0.588 39.8108 0.764 40.4828 1.116C41.1628 1.468 41.6908 1.964 42.0668 2.604C42.4428 3.236 42.6308 3.964 42.6308 4.788C42.6308 5.612 42.4388 6.344 42.0548 6.984C41.6788 7.624 41.1428 8.12 40.4468 8.472C39.7588 8.824 38.9668 9 38.0708 9H34.5308V0.588H38.1548ZM38.2148 7.224C38.6388 7.224 39.0148 7.124 39.3428 6.924C39.6708 6.724 39.9268 6.44 40.1108 6.072C40.2948 5.704 40.3868 5.284 40.3868 4.812C40.3868 4.332 40.2868 3.908 40.0868 3.54C39.8948 3.172 39.6268 2.888 39.2828 2.688C38.9388 2.48 38.5468 2.376 38.1068 2.376H36.7268V7.224H38.2148ZM46.5743 2.436C47.6303 2.436 48.4423 2.748 49.0103 3.372C49.5783 3.996 49.8623 4.852 49.8623 5.94C49.8623 6.108 49.8583 6.236 49.8503 6.324H45.3383C45.4423 6.692 45.6223 6.976 45.8783 7.176C46.1343 7.368 46.4463 7.464 46.8143 7.464C47.0943 7.464 47.3623 7.408 47.6183 7.296C47.8823 7.184 48.1223 7.02 48.3383 6.804L49.4543 7.92C49.1183 8.296 48.7103 8.584 48.2303 8.784C47.7583 8.976 47.2223 9.072 46.6223 9.072C45.9263 9.072 45.3183 8.936 44.7983 8.664C44.2783 8.392 43.8783 8.008 43.5983 7.512C43.3263 7.016 43.1903 6.44 43.1903 5.784C43.1903 5.12 43.3303 4.536 43.6103 4.032C43.8903 3.52 44.2863 3.128 44.7983 2.856C45.3103 2.576 45.9023 2.436 46.5743 2.436ZM47.7863 5.184C47.7863 4.808 47.6743 4.508 47.4503 4.284C47.2343 4.052 46.9463 3.936 46.5863 3.936C46.2503 3.936 45.9663 4.048 45.7343 4.272C45.5103 4.496 45.3623 4.8 45.2903 5.184H47.7863ZM53.8048 2.436C54.8608 2.436 55.6728 2.748 56.2408 3.372C56.8088 3.996 57.0928 4.852 57.0928 5.94C57.0928 6.108 57.0888 6.236 57.0808 6.324H52.5688C52.6728 6.692 52.8528 6.976 53.1088 7.176C53.3648 7.368 53.6768 7.464 54.0448 7.464C54.3248 7.464 54.5928 7.408 54.8488 7.296C55.1128 7.184 55.3528 7.02 55.5688 6.804L56.6848 7.92C56.3488 8.296 55.9408 8.584 55.4608 8.784C54.9888 8.976 54.4528 9.072 53.8528 9.072C53.1568 9.072 52.5488 8.936 52.0288 8.664C51.5088 8.392 51.1088 8.008 50.8288 7.512C50.5568 7.016 50.4208 6.44 50.4208 5.784C50.4208 5.12 50.5608 4.536 50.8408 4.032C51.1208 3.52 51.5168 3.128 52.0288 2.856C52.5408 2.576 53.1328 2.436 53.8048 2.436ZM55.0168 5.184C55.0168 4.808 54.9048 4.508 54.6808 4.284C54.4648 4.052 54.1768 3.936 53.8168 3.936C53.4808 3.936 53.1968 4.048 52.9648 4.272C52.7408 4.496 52.5928 4.8 52.5208 5.184H55.0168ZM62.2833 2.436C62.8833 2.436 63.4113 2.576 63.8673 2.856C64.3233 3.128 64.6753 3.52 64.9233 4.032C65.1793 4.536 65.3073 5.12 65.3073 5.784C65.3073 6.44 65.1833 7.016 64.9353 7.512C64.6953 8.008 64.3473 8.392 63.8913 8.664C63.4433 8.936 62.9233 9.072 62.3313 9.072C61.9233 9.072 61.5513 8.996 61.2153 8.844C60.8873 8.684 60.6073 8.456 60.3753 8.16V11.328H58.2393V2.508H60.3753V3.348C60.8473 2.74 61.4833 2.436 62.2833 2.436ZM61.7553 7.344C62.1713 7.344 62.5073 7.196 62.7633 6.9C63.0273 6.604 63.1593 6.216 63.1593 5.736C63.1593 5.256 63.0273 4.868 62.7633 4.572C62.5073 4.268 62.1713 4.116 61.7553 4.116C61.3473 4.116 61.0153 4.268 60.7593 4.572C60.5033 4.868 60.3753 5.256 60.3753 5.736C60.3753 6.216 60.5033 6.604 60.7593 6.9C61.0153 7.196 61.3473 7.344 61.7553 7.344Z" fill="#FDCC51"/>
</svg>
