<svg width="74" height="23" viewBox="0 0 74 23" fill="none" xmlns="http://www.w3.org/2000/svg">
<g filter="url(#filter0_d_426_30)">
<path d="M4.084 3.588H11.296V5.4H8.776V12H6.58V5.4H4.084V3.588ZM14.1356 6.588C14.3596 6.212 14.6476 5.924 14.9996 5.724C15.3596 5.524 15.7676 5.424 16.2236 5.424V7.38C16.1516 7.372 16.0436 7.368 15.8996 7.368C15.3956 7.368 14.9876 7.488 14.6756 7.728C14.3636 7.96 14.1836 8.28 14.1356 8.688V12H11.9996V5.508H14.1356V6.588ZM19.9081 5.424C20.8041 5.424 21.5001 5.632 21.9961 6.048C22.4921 6.456 22.7441 7.032 22.7521 7.776V12H20.6521V11.268C20.2201 11.82 19.5681 12.096 18.6961 12.096C18.0081 12.096 17.4641 11.912 17.0641 11.544C16.6721 11.168 16.4761 10.676 16.4761 10.068C16.4761 9.452 16.6881 8.972 17.1121 8.628C17.5441 8.284 18.1601 8.108 18.9601 8.1H20.6521V8.028C20.6521 7.716 20.5441 7.476 20.3281 7.308C20.1201 7.14 19.8161 7.056 19.4161 7.056C19.1441 7.056 18.8361 7.1 18.4921 7.188C18.1561 7.276 17.8161 7.404 17.4721 7.572L16.8841 6.132C17.4121 5.892 17.9161 5.716 18.3961 5.604C18.8841 5.484 19.3881 5.424 19.9081 5.424ZM19.3561 10.644C19.6761 10.644 19.9561 10.568 20.1961 10.416C20.4361 10.256 20.5881 10.052 20.6521 9.804V9.24H19.3801C18.7801 9.24 18.4801 9.464 18.4801 9.912C18.4801 10.136 18.5561 10.316 18.7081 10.452C18.8681 10.58 19.0841 10.644 19.3561 10.644ZM28.5191 7.56C27.6791 7.12 26.9911 6.9 26.4551 6.9C26.2711 6.9 26.1231 6.936 26.0111 7.008C25.8991 7.072 25.8431 7.172 25.8431 7.308C25.8431 7.452 25.9311 7.568 26.1071 7.656C26.2831 7.744 26.5631 7.84 26.9471 7.944C27.4111 8.08 27.7951 8.216 28.0991 8.352C28.4111 8.48 28.6791 8.68 28.9031 8.952C29.1271 9.216 29.2391 9.564 29.2391 9.996C29.2391 10.652 28.9831 11.168 28.4711 11.544C27.9671 11.912 27.3071 12.096 26.4911 12.096C25.9391 12.096 25.4111 12.02 24.9071 11.868C24.4031 11.708 23.9551 11.476 23.5631 11.172L24.2351 9.792C24.6031 10.048 24.9871 10.248 25.3871 10.392C25.7951 10.528 26.1791 10.596 26.5391 10.596C26.7471 10.596 26.9111 10.564 27.0311 10.5C27.1591 10.428 27.2231 10.328 27.2231 10.2C27.2231 10.04 27.1311 9.916 26.9471 9.828C26.7711 9.74 26.4911 9.644 26.1071 9.54C25.6511 9.404 25.2751 9.272 24.9791 9.144C24.6831 9.008 24.4231 8.808 24.1991 8.544C23.9831 8.28 23.8751 7.936 23.8751 7.512C23.8751 6.856 24.1231 6.344 24.6191 5.976C25.1151 5.6 25.7551 5.412 26.5391 5.412C27.0111 5.412 27.4751 5.476 27.9311 5.604C28.3951 5.732 28.8311 5.92 29.2391 6.168L28.5191 7.56ZM34.7303 5.424C35.4503 5.424 36.0223 5.648 36.4463 6.096C36.8783 6.544 37.0943 7.148 37.0943 7.908V12H34.9583V8.52C34.9583 8.152 34.8583 7.864 34.6583 7.656C34.4663 7.44 34.1983 7.332 33.8543 7.332C33.4623 7.34 33.1503 7.48 32.9183 7.752C32.6943 8.016 32.5823 8.364 32.5823 8.796V12H30.4463V3.096H32.5823V6.564C32.8143 6.188 33.1103 5.904 33.4703 5.712C33.8383 5.52 34.2583 5.424 34.7303 5.424Z" fill="white"/>
<path d="M42.1548 3.588C43.0348 3.588 43.8108 3.764 44.4828 4.116C45.1628 4.468 45.6908 4.964 46.0668 5.604C46.4428 6.236 46.6308 6.964 46.6308 7.788C46.6308 8.612 46.4388 9.344 46.0548 9.984C45.6788 10.624 45.1428 11.12 44.4468 11.472C43.7588 11.824 42.9668 12 42.0708 12H38.5308V3.588H42.1548ZM42.2148 10.224C42.6388 10.224 43.0148 10.124 43.3428 9.924C43.6708 9.724 43.9268 9.44 44.1108 9.072C44.2948 8.704 44.3868 8.284 44.3868 7.812C44.3868 7.332 44.2868 6.908 44.0868 6.54C43.8948 6.172 43.6268 5.888 43.2828 5.688C42.9388 5.48 42.5468 5.376 42.1068 5.376H40.7268V10.224H42.2148ZM50.5743 5.436C51.6303 5.436 52.4423 5.748 53.0103 6.372C53.5783 6.996 53.8623 7.852 53.8623 8.94C53.8623 9.108 53.8583 9.236 53.8503 9.324H49.3383C49.4423 9.692 49.6223 9.976 49.8783 10.176C50.1343 10.368 50.4463 10.464 50.8143 10.464C51.0943 10.464 51.3623 10.408 51.6183 10.296C51.8823 10.184 52.1223 10.02 52.3383 9.804L53.4543 10.92C53.1183 11.296 52.7103 11.584 52.2303 11.784C51.7583 11.976 51.2223 12.072 50.6223 12.072C49.9263 12.072 49.3183 11.936 48.7983 11.664C48.2783 11.392 47.8783 11.008 47.5983 10.512C47.3263 10.016 47.1903 9.44 47.1903 8.784C47.1903 8.12 47.3303 7.536 47.6103 7.032C47.8903 6.52 48.2863 6.128 48.7983 5.856C49.3103 5.576 49.9023 5.436 50.5743 5.436ZM51.7863 8.184C51.7863 7.808 51.6743 7.508 51.4503 7.284C51.2343 7.052 50.9463 6.936 50.5863 6.936C50.2503 6.936 49.9663 7.048 49.7343 7.272C49.5103 7.496 49.3623 7.8 49.2903 8.184H51.7863ZM57.8048 5.436C58.8608 5.436 59.6728 5.748 60.2408 6.372C60.8088 6.996 61.0928 7.852 61.0928 8.94C61.0928 9.108 61.0888 9.236 61.0808 9.324H56.5688C56.6728 9.692 56.8528 9.976 57.1088 10.176C57.3648 10.368 57.6768 10.464 58.0448 10.464C58.3248 10.464 58.5928 10.408 58.8488 10.296C59.1128 10.184 59.3528 10.02 59.5688 9.804L60.6848 10.92C60.3488 11.296 59.9408 11.584 59.4608 11.784C58.9888 11.976 58.4528 12.072 57.8528 12.072C57.1568 12.072 56.5488 11.936 56.0288 11.664C55.5088 11.392 55.1088 11.008 54.8288 10.512C54.5568 10.016 54.4208 9.44 54.4208 8.784C54.4208 8.12 54.5608 7.536 54.8408 7.032C55.1208 6.52 55.5168 6.128 56.0288 5.856C56.5408 5.576 57.1328 5.436 57.8048 5.436ZM59.0168 8.184C59.0168 7.808 58.9048 7.508 58.6808 7.284C58.4648 7.052 58.1768 6.936 57.8168 6.936C57.4808 6.936 57.1968 7.048 56.9648 7.272C56.7408 7.496 56.5928 7.8 56.5208 8.184H59.0168ZM66.2833 5.436C66.8833 5.436 67.4113 5.576 67.8673 5.856C68.3233 6.128 68.6753 6.52 68.9233 7.032C69.1793 7.536 69.3073 8.12 69.3073 8.784C69.3073 9.44 69.1833 10.016 68.9353 10.512C68.6953 11.008 68.3473 11.392 67.8913 11.664C67.4433 11.936 66.9233 12.072 66.3313 12.072C65.9233 12.072 65.5513 11.996 65.2153 11.844C64.8873 11.684 64.6073 11.456 64.3753 11.16V14.328H62.2393V5.508H64.3753V6.348C64.8473 5.74 65.4833 5.436 66.2833 5.436ZM65.7553 10.344C66.1713 10.344 66.5073 10.196 66.7633 9.9C67.0273 9.604 67.1593 9.216 67.1593 8.736C67.1593 8.256 67.0273 7.868 66.7633 7.572C66.5073 7.268 66.1713 7.116 65.7553 7.116C65.3473 7.116 65.0153 7.268 64.7593 7.572C64.5033 7.868 64.3753 8.256 64.3753 8.736C64.3753 9.216 64.5033 9.604 64.7593 9.9C65.0153 10.196 65.3473 10.344 65.7553 10.344Z" fill="#FDCC51"/>
</g>
<defs>
<filter id="filter0_d_426_30" x="0.0840149" y="3.096" width="73.2233" height="19.232" filterUnits="userSpaceOnUse" color-interpolation-filters="sRGB">
<feFlood flood-opacity="0" result="BackgroundImageFix"/>
<feColorMatrix in="SourceAlpha" type="matrix" values="0 0 0 0 0 0 0 0 0 0 0 0 0 0 0 0 0 0 127 0" result="hardAlpha"/>
<feOffset dy="4"/>
<feGaussianBlur stdDeviation="2"/>
<feComposite in2="hardAlpha" operator="out"/>
<feColorMatrix type="matrix" values="0 0 0 0 0 0 0 0 0 0 0 0 0 0 0 0 0 0 0.25 0"/>
<feBlend mode="normal" in2="BackgroundImageFix" result="effect1_dropShadow_426_30"/>
<feBlend mode="normal" in="SourceGraphic" in2="effect1_dropShadow_426_30" result="shape"/>
</filter>
</defs>
</svg>
