<svg width="16" height="28" viewBox="0 0 16 28" fill="none" xmlns="http://www.w3.org/2000/svg">
<path d="M3.17051 0.554086L15.5945 12.9657C15.7419 13.1135 15.8461 13.2735 15.9071 13.4459C15.969 13.6183 16 13.803 16 14C16 14.197 15.969 14.3817 15.9071 14.5541C15.8461 14.7265 15.7419 14.8865 15.5945 15.0343L3.17051 27.4828C2.82642 27.8276 2.39631 28 1.88018 28C1.36406 28 0.921659 27.8153 0.552996 27.4459C0.184332 27.0765 1.18409e-07 26.6456 1.61467e-07 26.153C2.04525e-07 25.6605 0.184332 25.2295 0.552996 24.8602L11.3917 14L0.552998 3.13984C0.208912 2.79507 0.0368684 2.37052 0.0368685 1.86617C0.0368685 1.36084 0.221201 0.923479 0.589864 0.554086C0.958528 0.184693 1.38864 -2.70788e-06 1.88019 -2.6649e-06C2.37174 -2.62193e-06 2.80185 0.184693 3.17051 0.554086Z" fill="#0E7B3E"/>
</svg>
