<svg width="68" height="12" viewBox="0 0 68 12" fill="none" xmlns="http://www.w3.org/2000/svg">
<path d="M2.736 9V2.184H0.048V0.599999H7.368V2.184H4.68V9H2.736ZM8.14134 9V2.544H9.92934V4.368L9.67734 3.84C9.86934 3.384 10.1773 3.04 10.6013 2.808C11.0253 2.568 11.5413 2.448 12.1493 2.448V4.176C12.0693 4.168 11.9973 4.164 11.9333 4.164C11.8693 4.156 11.8013 4.152 11.7293 4.152C11.2173 4.152 10.8013 4.3 10.4813 4.596C10.1693 4.884 10.0133 5.336 10.0133 5.952V9H8.14134ZM16.8006 9V7.74L16.6806 7.464V5.208C16.6806 4.808 16.5566 4.496 16.3086 4.272C16.0686 4.048 15.6966 3.936 15.1926 3.936C14.8486 3.936 14.5086 3.992 14.1726 4.104C13.8446 4.208 13.5646 4.352 13.3326 4.536L12.6606 3.228C13.0126 2.98 13.4366 2.788 13.9326 2.652C14.4286 2.516 14.9326 2.448 15.4446 2.448C16.4286 2.448 17.1926 2.68 17.7366 3.144C18.2806 3.608 18.5526 4.332 18.5526 5.316V9H16.8006ZM14.8326 9.096C14.3286 9.096 13.8966 9.012 13.5366 8.844C13.1766 8.668 12.9006 8.432 12.7086 8.136C12.5166 7.84 12.4206 7.508 12.4206 7.14C12.4206 6.756 12.5126 6.42 12.6966 6.132C12.8886 5.844 13.1886 5.62 13.5966 5.46C14.0046 5.292 14.5366 5.208 15.1926 5.208H16.9086V6.3H15.3966C14.9566 6.3 14.6526 6.372 14.4846 6.516C14.3246 6.66 14.2446 6.84 14.2446 7.056C14.2446 7.296 14.3366 7.488 14.5206 7.632C14.7126 7.768 14.9726 7.836 15.3006 7.836C15.6126 7.836 15.8926 7.764 16.1406 7.62C16.3886 7.468 16.5686 7.248 16.6806 6.96L16.9686 7.824C16.8326 8.24 16.5846 8.556 16.2246 8.772C15.8646 8.988 15.4006 9.096 14.8326 9.096ZM22.4188 9.096C21.8668 9.096 21.3348 9.032 20.8228 8.904C20.3188 8.768 19.9188 8.6 19.6228 8.4L20.2468 7.056C20.5428 7.24 20.8908 7.392 21.2908 7.512C21.6988 7.624 22.0988 7.68 22.4908 7.68C22.9228 7.68 23.2268 7.628 23.4028 7.524C23.5868 7.42 23.6788 7.276 23.6788 7.092C23.6788 6.94 23.6068 6.828 23.4628 6.756C23.3268 6.676 23.1428 6.616 22.9108 6.576C22.6788 6.536 22.4228 6.496 22.1428 6.456C21.8708 6.416 21.5948 6.364 21.3148 6.3C21.0348 6.228 20.7788 6.124 20.5468 5.988C20.3148 5.852 20.1268 5.668 19.9828 5.436C19.8468 5.204 19.7788 4.904 19.7788 4.536C19.7788 4.128 19.8948 3.768 20.1268 3.456C20.3668 3.144 20.7108 2.9 21.1588 2.724C21.6068 2.54 22.1428 2.448 22.7668 2.448C23.2068 2.448 23.6548 2.496 24.1108 2.592C24.5668 2.688 24.9468 2.828 25.2508 3.012L24.6268 4.344C24.3148 4.16 23.9988 4.036 23.6788 3.972C23.3668 3.9 23.0628 3.864 22.7668 3.864C22.3508 3.864 22.0468 3.92 21.8548 4.032C21.6628 4.144 21.5668 4.288 21.5668 4.464C21.5668 4.624 21.6348 4.744 21.7708 4.824C21.9148 4.904 22.1028 4.968 22.3348 5.016C22.5668 5.064 22.8188 5.108 23.0908 5.148C23.3708 5.18 23.6508 5.232 23.9308 5.304C24.2108 5.376 24.4628 5.48 24.6868 5.616C24.9188 5.744 25.1068 5.924 25.2508 6.156C25.3948 6.38 25.4668 6.676 25.4668 7.044C25.4668 7.444 25.3468 7.8 25.1068 8.112C24.8668 8.416 24.5188 8.656 24.0628 8.832C23.6148 9.008 23.0668 9.096 22.4188 9.096ZM30.5458 2.448C31.0578 2.448 31.5138 2.552 31.9138 2.76C32.3218 2.96 32.6418 3.272 32.8738 3.696C33.1058 4.112 33.2218 4.648 33.2218 5.304V9H31.3498V5.592C31.3498 5.072 31.2338 4.688 31.0018 4.44C30.7778 4.192 30.4578 4.068 30.0418 4.068C29.7458 4.068 29.4778 4.132 29.2378 4.26C29.0058 4.38 28.8218 4.568 28.6858 4.824C28.5578 5.08 28.4938 5.408 28.4938 5.808V9H26.6218V0.0959995H28.4938V4.332L28.0738 3.792C28.3058 3.36 28.6378 3.028 29.0698 2.796C29.5018 2.564 29.9938 2.448 30.5458 2.448Z" fill="white"/>
<path d="M35.0507 9V0.599999H38.8667C39.7787 0.599999 40.5827 0.776 41.2787 1.128C41.9747 1.472 42.5187 1.956 42.9107 2.58C43.3027 3.204 43.4987 3.944 43.4987 4.8C43.4987 5.648 43.3027 6.388 42.9107 7.02C42.5187 7.644 41.9747 8.132 41.2787 8.484C40.5827 8.828 39.7787 9 38.8667 9H35.0507ZM36.9947 7.404H38.7707C39.3307 7.404 39.8147 7.3 40.2227 7.092C40.6387 6.876 40.9587 6.572 41.1827 6.18C41.4147 5.788 41.5307 5.328 41.5307 4.8C41.5307 4.264 41.4147 3.804 41.1827 3.42C40.9587 3.028 40.6387 2.728 40.2227 2.52C39.8147 2.304 39.3307 2.196 38.7707 2.196H36.9947V7.404ZM48.0368 9.096C47.3008 9.096 46.6528 8.952 46.0928 8.664C45.5408 8.376 45.1128 7.984 44.8088 7.488C44.5048 6.984 44.3528 6.412 44.3528 5.772C44.3528 5.124 44.5008 4.552 44.7968 4.056C45.1008 3.552 45.5128 3.16 46.0328 2.88C46.5528 2.592 47.1408 2.448 47.7968 2.448C48.4288 2.448 48.9968 2.584 49.5008 2.856C50.0128 3.12 50.4168 3.504 50.7128 4.008C51.0088 4.504 51.1568 5.1 51.1568 5.796C51.1568 5.868 51.1528 5.952 51.1448 6.048C51.1368 6.136 51.1288 6.22 51.1208 6.3H45.8768V5.208H50.1367L49.4168 5.532C49.4168 5.196 49.3488 4.904 49.2128 4.656C49.0768 4.408 48.8888 4.216 48.6488 4.08C48.4088 3.936 48.1288 3.864 47.8088 3.864C47.4888 3.864 47.2048 3.936 46.9568 4.08C46.7168 4.216 46.5288 4.412 46.3928 4.668C46.2568 4.916 46.1888 5.212 46.1888 5.556V5.844C46.1888 6.196 46.2648 6.508 46.4168 6.78C46.5768 7.044 46.7968 7.248 47.0768 7.392C47.3648 7.528 47.7008 7.596 48.0848 7.596C48.4288 7.596 48.7288 7.544 48.9848 7.44C49.2488 7.336 49.4888 7.18 49.7048 6.972L50.7008 8.052C50.4048 8.388 50.0328 8.648 49.5848 8.832C49.1368 9.008 48.6208 9.096 48.0368 9.096ZM55.6071 9.096C54.8711 9.096 54.2231 8.952 53.6631 8.664C53.1111 8.376 52.6831 7.984 52.3791 7.488C52.0751 6.984 51.9231 6.412 51.9231 5.772C51.9231 5.124 52.0711 4.552 52.3671 4.056C52.6711 3.552 53.0831 3.16 53.6031 2.88C54.1231 2.592 54.7111 2.448 55.3671 2.448C55.9991 2.448 56.5671 2.584 57.0711 2.856C57.5831 3.12 57.9871 3.504 58.2831 4.008C58.5791 4.504 58.7271 5.1 58.7271 5.796C58.7271 5.868 58.7231 5.952 58.7151 6.048C58.7071 6.136 58.6991 6.22 58.6911 6.3H53.4471V5.208H57.7071L56.9871 5.532C56.9871 5.196 56.9191 4.904 56.7831 4.656C56.6471 4.408 56.4591 4.216 56.2191 4.08C55.9791 3.936 55.6991 3.864 55.3791 3.864C55.0591 3.864 54.7751 3.936 54.5271 4.08C54.2871 4.216 54.0991 4.412 53.9631 4.668C53.8271 4.916 53.7591 5.212 53.7591 5.556V5.844C53.7591 6.196 53.8351 6.508 53.9871 6.78C54.1471 7.044 54.3671 7.248 54.6471 7.392C54.9351 7.528 55.2711 7.596 55.6551 7.596C55.9991 7.596 56.2991 7.544 56.5551 7.44C56.8191 7.336 57.0591 7.18 57.2751 6.972L58.2711 8.052C57.9751 8.388 57.6031 8.648 57.1551 8.832C56.7071 9.008 56.1911 9.096 55.6071 9.096ZM63.7894 9.096C63.2454 9.096 62.7694 8.976 62.3614 8.736C61.9534 8.496 61.6334 8.132 61.4014 7.644C61.1774 7.148 61.0654 6.524 61.0654 5.772C61.0654 5.012 61.1734 4.388 61.3894 3.9C61.6054 3.412 61.9174 3.048 62.3254 2.808C62.7334 2.568 63.2214 2.448 63.7894 2.448C64.3974 2.448 64.9414 2.588 65.4214 2.868C65.9094 3.14 66.2934 3.524 66.5734 4.02C66.8614 4.516 67.0054 5.1 67.0054 5.772C67.0054 6.452 66.8614 7.04 66.5734 7.536C66.2934 8.032 65.9094 8.416 65.4214 8.688C64.9414 8.96 64.3974 9.096 63.7894 9.096ZM59.9734 11.328V2.544H61.7614V3.864L61.7254 5.784L61.8454 7.692V11.328H59.9734ZM63.4654 7.56C63.7774 7.56 64.0534 7.488 64.2934 7.344C64.5414 7.2 64.7374 6.996 64.8814 6.732C65.0334 6.46 65.1094 6.14 65.1094 5.772C65.1094 5.396 65.0334 5.076 64.8814 4.812C64.7374 4.548 64.5414 4.344 64.2934 4.2C64.0534 4.056 63.7774 3.984 63.4654 3.984C63.1534 3.984 62.8734 4.056 62.6254 4.2C62.3774 4.344 62.1814 4.548 62.0374 4.812C61.8934 5.076 61.8214 5.396 61.8214 5.772C61.8214 6.14 61.8934 6.46 62.0374 6.732C62.1814 6.996 62.3774 7.2 62.6254 7.344C62.8734 7.488 63.1534 7.56 63.4654 7.56Z" fill="#FDCC51"/>
</svg>
